<svg id="visual" viewBox="0 0 900 600" width="900" height="600" xmlns="http://www.w3.org/2000/svg" xmlns:xlink="http://www.w3.org/1999/xlink" version="1.1"><path d="M0 157L30 158C60 159 120 161 180 155C240 149 300 135 360 135C420 135 480 149 540 155C600 161 660 159 720 160C780 161 840 165 870 167L900 169L900 0L870 0C840 0 780 0 720 0C660 0 600 0 540 0C480 0 420 0 360 0C300 0 240 0 180 0C120 0 60 0 30 0L0 0Z" fill="#f28dab"></path><path d="M0 409L30 404C60 399 120 389 180 380C240 371 300 363 360 368C420 373 480 391 540 401C600 411 660 413 720 406C780 399 840 383 870 375L900 367L900 167L870 165C840 163 780 159 720 158C660 157 600 159 540 153C480 147 420 133 360 133C300 133 240 147 180 153C120 159 60 157 30 156L0 155Z" fill="#e75480"></path><path d="M0 601L30 601C60 601 120 601 180 601C240 601 300 601 360 601C420 601 480 601 540 601C600 601 660 601 720 601C780 601 840 601 870 601L900 601L900 365L870 373C840 381 780 397 720 404C660 411 600 409 540 399C480 389 420 371 360 366C300 361 240 369 180 378C120 387 60 397 30 402L0 407Z" fill="#ae3a5b"></path></svg>